<svg width="104" height="104" viewBox="0 0 104 104" fill="none" xmlns="http://www.w3.org/2000/svg">
<path d="M41.1667 64.7404V39.2596C41.1667 37.3898 42.9781 36.2249 44.4205 37.167L63.9265 49.9074C65.3578 50.8422 65.3578 53.1577 63.9265 54.0926L44.4205 66.833C42.9781 67.7751 41.1667 66.6101 41.1667 64.7404Z" fill="white"/>
<path d="M39.6667 39.2596V64.7404C39.6667 66.172 40.3677 67.4123 41.4413 68.1028C42.5323 68.8044 43.9861 68.9083 45.2408 68.0888L64.7468 55.3484C65.9569 54.558 66.5 53.2288 66.5 52C66.5 50.7711 65.9569 49.4419 64.7468 48.6515L45.2408 35.9111C43.9861 35.0916 42.5323 35.1956 41.4413 35.8972C40.3677 36.5877 39.6667 37.828 39.6667 39.2596Z" stroke="white" stroke-opacity="0.35" stroke-width="3" style="mix-blend-mode:lighten"/>
<circle cx="52" cy="52" r="50.5" stroke="white" stroke-width="3"/>
</svg>
